<svg width="3932" height="2982" viewBox="0 0 3932 2982" fill="none" xmlns="http://www.w3.org/2000/svg">
<path fill-rule="evenodd" clip-rule="evenodd" d="M2230.01 1490.89C2345.03 1409.38 2420.1 1275.21 2420.1 1123.5C2420.1 874.972 2248.1 551.5 1970.1 410C1694.6 559 1520.1 874.972 1520.1 1123.5C1520.1 1275.21 1595.17 1409.38 1710.19 1490.89C1706.09 1491.44 1702.05 1492.14 1698.1 1493C1610.71 1512.07 1504.1 1656.05 1504.1 1656.05H1768.1C1815.08 1656.05 1859.73 1638.41 1895.06 1618.62C1912.22 1641.32 1939.45 1656 1970.1 1656C2000.76 1656 2027.99 1641.32 2045.15 1618.62C2080.47 1638.41 2125.13 1656.05 2172.1 1656.05H2436.1C2436.1 1656.05 2329.49 1512.07 2242.1 1493C2238.15 1492.14 2234.12 1491.44 2230.01 1490.89Z" fill="url(#paint0_linear_112_2)"/>
<circle cx="1969.6" cy="1149.5" r="311.5" fill="white"/>
<path d="M1699.1 1016.5C1883.6 1029.5 1992.6 984.5 2068.1 873C2068.1 873 1922.6 824 1834.1 873C1745.9 921.834 1699.1 1016.5 1699.1 1016.5Z" fill="#B4B4B4"/>
<path d="M2215.1 989C2141.1 981 2075.1 957 2043.6 866.5C2043.6 866.5 2109.03 881.435 2175.1 941.614C2243.72 1004.11 2215.1 989 2215.1 989Z" fill="#B4B4B4"/>
<circle cx="1969.6" cy="1149.5" r="311.5" stroke="#0A0000" stroke-width="40"/>
<path d="M2031.1 1016H1908.1L1938.1 1046V1136C1942.6 1106.5 1998.6 1105.5 2001.6 1136L2009.1 1046L2031.1 1016Z" fill="black"/>
<path d="M1585.22 1056C1585.22 1033.91 1603.13 1016 1625.22 1016H1910.12C1934.3 1016 1952.96 1037.29 1949.77 1061.26L1925.01 1247.76C1922.37 1267.65 1905.42 1282.5 1885.36 1282.5H1625.22C1603.13 1282.5 1585.22 1264.59 1585.22 1242.5V1056Z" fill="black"/>
<path d="M1703.2 1238.55V1222.05H1697.65C1694.05 1222.05 1691.65 1219.5 1690.45 1215.75L1667.65 1147.05C1666.15 1142.7 1664.35 1139.55 1661.95 1137.15C1657.45 1132.5 1651.6 1131 1645 1131H1637.8V1148.25H1642.6C1646.65 1148.25 1649.8 1149.75 1651.15 1154.55L1654.3 1165.65L1626.1 1238.55H1646.65L1663.6 1190.55L1672.6 1219.5C1676.05 1230.75 1681.9 1238.55 1695.1 1238.55H1703.2Z" fill="white"/>
<path d="M1735.9 1222.05V1238.55H1791.9V1222.05H1735.9Z" fill="white"/>
<path d="M1990.12 1061.27C1986.93 1037.29 2005.58 1016 2029.77 1016H2314.1C2336.19 1016 2354.1 1033.91 2354.1 1056V1242.1C2354.1 1264.19 2336.19 1282.1 2314.1 1282.1H2054.48C2034.43 1282.1 2017.47 1267.24 2014.83 1247.36L1990.12 1061.27Z" fill="black"/>
<path d="M2136.4 1239V1222.5H2130.85C2127.25 1222.5 2124.85 1219.95 2123.65 1216.2L2100.85 1147.5C2099.35 1143.15 2097.55 1140 2095.15 1137.6C2090.65 1132.95 2084.8 1131.45 2078.2 1131.45H2071V1148.7H2075.8C2079.85 1148.7 2083 1150.2 2084.35 1155L2087.5 1166.1L2059.3 1239H2079.85L2096.8 1191L2105.8 1219.95C2109.25 1231.2 2115.1 1239 2128.3 1239H2136.4Z" fill="white"/>
<path d="M2169.1 1222.5V1239H2225.1V1222.5H2169.1Z" fill="white"/>
<path d="M733.026 1982.64C741.573 1971.19 751.915 1962.21 764.051 1955.72C776.188 1949.05 789.094 1945.72 802.769 1945.72C836.786 1945.72 862 1958.37 878.41 1983.67C894.991 2008.79 903.282 2044.26 903.282 2090.08C903.282 2118.45 899.009 2143.67 890.462 2165.72C882.085 2187.6 869.692 2204.78 853.282 2217.26C837.043 2229.56 817.385 2235.72 794.308 2235.72C780.632 2235.72 767.897 2232.81 756.103 2227C744.479 2221.36 734.735 2213.15 726.872 2202.38L723.795 2227H652V1846.49L733.026 1838.03V1982.64ZM773.026 2176.74C804.137 2176.74 819.692 2148.2 819.692 2091.1C819.692 2069.22 817.983 2052.04 814.564 2039.56C811.145 2026.91 806.274 2018.11 799.949 2013.15C793.795 2008.03 786.188 2005.46 777.128 2005.46C760.376 2005.46 745.675 2015.97 733.026 2037V2151.87C738.325 2160.25 744.137 2166.49 750.462 2170.59C756.957 2174.69 764.479 2176.74 773.026 2176.74Z" fill="black"/>
<path d="M1188.85 2148.54C1188.85 2158.62 1190.22 2166.06 1192.95 2170.85C1195.69 2175.46 1200.3 2178.97 1206.8 2181.36L1190.13 2234.69C1173.55 2233.15 1159.79 2229.56 1148.85 2223.92C1138.08 2218.11 1129.62 2209.74 1123.46 2198.79C1113.38 2210.93 1100.3 2220.16 1084.23 2226.49C1068.34 2232.64 1051.5 2235.72 1033.72 2235.72C1015.26 2235.72 999.019 2232.13 985.002 2224.95C971.156 2217.6 960.472 2207.51 952.951 2194.69C945.429 2181.7 941.668 2166.83 941.668 2150.08C941.668 2130.59 946.882 2113.92 957.31 2100.08C967.737 2086.23 982.865 2075.72 1002.69 2068.54C1022.52 2061.19 1046.37 2057.51 1074.23 2057.51H1110.9V2047.26C1110.9 2019.39 1092.95 2005.46 1057.05 2005.46C1047.99 2005.46 1036.54 2006.74 1022.69 2009.31C1009.02 2011.87 995.6 2015.38 982.438 2019.82L963.72 1965.97C980.814 1959.48 998.848 1954.52 1017.82 1951.1C1036.8 1947.51 1054.15 1945.72 1069.87 1945.72C1109.87 1945.72 1139.7 1953.84 1159.36 1970.08C1179.02 1986.32 1188.85 2010.25 1188.85 2041.87V2148.54ZM1061.67 2177.77C1070.9 2177.77 1080.22 2175.12 1089.62 2169.82C1099.02 2164.35 1106.11 2157 1110.9 2147.77V2103.67H1090.9C1068.68 2103.67 1052.18 2107.09 1041.41 2113.92C1030.64 2120.76 1025.26 2130.93 1025.26 2144.44C1025.26 2155.03 1028.42 2163.24 1034.75 2169.05C1041.24 2174.86 1050.22 2177.77 1061.67 2177.77Z" fill="black"/>
<path d="M1471.31 1982.64C1479.85 1971.19 1490.2 1962.21 1502.33 1955.72C1514.47 1949.05 1527.38 1945.72 1541.05 1945.72C1575.07 1945.72 1600.28 1958.37 1616.69 1983.67C1633.27 2008.79 1641.56 2044.26 1641.56 2090.08C1641.56 2118.45 1637.29 2143.67 1628.74 2165.72C1620.37 2187.6 1607.97 2204.78 1591.56 2217.26C1575.32 2229.56 1555.67 2235.72 1532.59 2235.72C1518.91 2235.72 1506.18 2232.81 1494.38 2227C1482.76 2221.36 1473.02 2213.15 1465.15 2202.38L1462.08 2227H1390.28V1846.49L1471.31 1838.03V1982.64ZM1511.31 2176.74C1542.42 2176.74 1557.97 2148.2 1557.97 2091.1C1557.97 2069.22 1556.26 2052.04 1552.85 2039.56C1549.43 2026.91 1544.55 2018.11 1538.23 2013.15C1532.08 2008.03 1524.47 2005.46 1515.41 2005.46C1498.66 2005.46 1483.96 2015.97 1471.31 2037V2151.87C1476.61 2160.25 1482.42 2166.49 1488.74 2170.59C1495.24 2174.69 1502.76 2176.74 1511.31 2176.74Z" fill="black"/>
<path d="M1927.13 2148.54C1927.13 2158.62 1928.5 2166.06 1931.23 2170.85C1933.97 2175.46 1938.58 2178.97 1945.08 2181.36L1928.41 2234.69C1911.83 2233.15 1898.07 2229.56 1887.13 2223.92C1876.36 2218.11 1867.9 2209.74 1861.74 2198.79C1851.66 2210.93 1838.58 2220.16 1822.51 2226.49C1806.62 2232.64 1789.78 2235.72 1772 2235.72C1753.54 2235.72 1737.3 2232.13 1723.28 2224.95C1709.44 2217.6 1698.75 2207.51 1691.23 2194.69C1683.71 2181.7 1679.95 2166.83 1679.95 2150.08C1679.95 2130.59 1685.16 2113.92 1695.59 2100.08C1706.02 2086.23 1721.15 2075.72 1740.98 2068.54C1760.8 2061.19 1784.65 2057.51 1812.51 2057.51H1849.18V2047.26C1849.18 2019.39 1831.23 2005.46 1795.33 2005.46C1786.27 2005.46 1774.82 2006.74 1760.98 2009.31C1747.3 2011.87 1733.88 2015.38 1720.72 2019.82L1702 1965.97C1719.09 1959.48 1737.13 1954.52 1756.1 1951.1C1775.08 1947.51 1792.43 1945.72 1808.15 1945.72C1848.15 1945.72 1877.98 1953.84 1897.64 1970.08C1917.3 1986.32 1927.13 2010.25 1927.13 2041.87V2148.54ZM1799.95 2177.77C1809.18 2177.77 1818.5 2175.12 1827.9 2169.82C1837.3 2164.35 1844.39 2157 1849.18 2147.77V2103.67H1829.18C1806.96 2103.67 1790.46 2107.09 1779.69 2113.92C1768.92 2120.76 1763.54 2130.93 1763.54 2144.44C1763.54 2155.03 1766.7 2163.24 1773.03 2169.05C1779.52 2174.86 1788.5 2177.77 1799.95 2177.77Z" fill="black"/>
<path d="M2114.75 2177.77C2128.59 2177.77 2139.53 2175.63 2147.57 2171.36C2155.77 2166.91 2159.87 2160.5 2159.87 2152.13C2159.87 2146.15 2158.25 2141.27 2155 2137.51C2151.75 2133.58 2145.69 2129.91 2136.8 2126.49C2127.91 2122.9 2114.06 2118.54 2095.26 2113.41C2067.91 2106.06 2046.97 2095.97 2032.44 2083.15C2018.08 2070.33 2010.9 2052.56 2010.9 2029.82C2010.9 2013.41 2015.43 1998.88 2024.49 1986.23C2033.72 1973.58 2047.23 1963.67 2065 1956.49C2082.78 1949.31 2104.15 1945.72 2129.11 1945.72C2172.35 1945.72 2209.11 1956.74 2239.36 1978.79L2207.05 2026.49C2195.26 2019.31 2182.87 2013.67 2169.87 2009.56C2157.05 2005.46 2144.23 2003.41 2131.41 2003.41C2118.25 2003.41 2108.42 2005.21 2101.93 2008.79C2095.6 2012.21 2092.44 2017.43 2092.44 2024.44C2092.44 2029.22 2094.06 2033.24 2097.31 2036.49C2100.73 2039.74 2106.8 2043.07 2115.52 2046.49C2124.4 2049.91 2138.17 2054.26 2156.8 2059.56C2176.46 2065.03 2192.44 2071.1 2204.75 2077.77C2217.05 2084.26 2226.63 2092.98 2233.46 2103.92C2240.47 2114.69 2243.98 2128.62 2243.98 2145.72C2243.98 2164.86 2238.17 2181.27 2226.54 2194.95C2215.09 2208.45 2199.62 2218.62 2180.13 2225.46C2160.64 2232.3 2139.02 2235.72 2115.26 2235.72C2089.79 2235.72 2066.88 2232.13 2046.54 2224.95C2026.2 2217.6 2008.68 2207.51 1993.98 2194.69L2034.75 2149.05C2046.03 2157.94 2058.42 2164.95 2071.93 2170.08C2085.43 2175.21 2099.7 2177.77 2114.75 2177.77Z" fill="black"/>
<path d="M2394.16 1981.62C2416.89 1957.68 2443.56 1945.72 2474.16 1945.72C2498.26 1945.72 2516.72 1952.81 2529.54 1967C2542.53 1981.02 2549.03 2001.02 2549.03 2027V2227H2468V2049.56C2468 2038.45 2467.15 2029.74 2465.44 2023.41C2463.9 2017.09 2461.25 2012.56 2457.49 2009.82C2453.73 2006.91 2448.52 2005.46 2441.85 2005.46C2433.65 2005.46 2425.7 2008.28 2418 2013.92C2410.31 2019.56 2402.36 2027.77 2394.16 2038.54V2227H2313.13V1846.49L2394.16 1838.54V1981.62Z" fill="black"/>
<path d="M2824.82 2227H2743.8V1846.49L2824.82 1838.03V2227ZM2912.77 2075.21L3009.69 2227H2917.39L2827.9 2077.77L2917.39 1954.69H3002.26L2912.77 2075.21Z" fill="black"/>
<path d="M3280.64 2148.54C3280.64 2158.62 3282.01 2166.06 3284.75 2170.85C3287.48 2175.46 3292.1 2178.97 3298.59 2181.36L3281.93 2234.69C3265.35 2233.15 3251.58 2229.56 3240.64 2223.92C3229.88 2218.11 3221.41 2209.74 3215.26 2198.79C3205.17 2210.93 3192.1 2220.16 3176.03 2226.49C3160.13 2232.64 3143.29 2235.72 3125.52 2235.72C3107.06 2235.72 3090.82 2232.13 3076.8 2224.95C3062.95 2217.6 3052.27 2207.51 3044.75 2194.69C3037.23 2181.7 3033.47 2166.83 3033.47 2150.08C3033.47 2130.59 3038.68 2113.92 3049.11 2100.08C3059.53 2086.23 3074.66 2075.72 3094.49 2068.54C3114.32 2061.19 3138.17 2057.51 3166.03 2057.51H3202.7V2047.26C3202.7 2019.39 3184.75 2005.46 3148.85 2005.46C3139.79 2005.46 3128.34 2006.74 3114.49 2009.31C3100.82 2011.87 3087.4 2015.38 3074.23 2019.82L3055.52 1965.97C3072.61 1959.48 3090.64 1954.52 3109.62 1951.1C3128.59 1947.51 3145.94 1945.72 3161.67 1945.72C3201.67 1945.72 3231.5 1953.84 3251.16 1970.08C3270.82 1986.32 3280.64 2010.25 3280.64 2041.87V2148.54ZM3153.47 2177.77C3162.7 2177.77 3172.01 2175.12 3181.41 2169.82C3190.82 2164.35 3197.91 2157 3202.7 2147.77V2103.67H3182.7C3160.47 2103.67 3143.98 2107.09 3133.21 2113.92C3122.44 2120.76 3117.06 2130.93 3117.06 2144.44C3117.06 2155.03 3120.22 2163.24 3126.54 2169.05C3133.04 2174.86 3142.01 2177.77 3153.47 2177.77Z" fill="black"/>
<path d="M1349.1 2090C1349.1 2119.27 1325.37 2143 1296.1 2143C1266.83 2143 1243.1 2119.27 1243.1 2090C1243.1 2060.73 1266.83 2037 1296.1 2037C1325.37 2037 1349.1 2060.73 1349.1 2090Z" fill="black"/>
<path d="M2702.6 2090C2702.6 2119.27 2678.87 2143 2649.6 2143C2620.33 2143 2596.6 2119.27 2596.6 2090C2596.6 2060.73 2620.33 2037 2649.6 2037C2678.87 2037 2702.6 2060.73 2702.6 2090Z" fill="black"/>
<path d="M2805.96 2585.09C2765.03 2595.89 2730.05 2592.84 2701.02 2575.94C2672.29 2558.5 2652.91 2530.78 2642.88 2492.78C2633.95 2458.95 2632.81 2427.53 2639.45 2398.53C2646.08 2369.53 2658.23 2345.33 2675.9 2325.92C2693.56 2306.52 2714.08 2293.73 2737.47 2287.56C2760.44 2281.49 2780.01 2283.7 2796.17 2294.17C2812.65 2304.12 2823.69 2319.74 2829.32 2341.04C2833.95 2358.58 2833.89 2374.45 2829.16 2388.66C2824.83 2402.76 2816.41 2411.46 2803.88 2414.76C2795.95 2416.86 2788.98 2416.69 2782.97 2414.25C2777.39 2411.71 2773.71 2407.09 2771.95 2400.41C2771.18 2397.49 2770.71 2394.04 2770.56 2390.06C2770.4 2386.08 2770.31 2383.2 2770.29 2381.42C2770.72 2374.6 2770.22 2368.48 2768.79 2363.05C2767.35 2357.62 2764.79 2353.83 2761.1 2351.68C2757.82 2349.42 2753.67 2348.95 2748.66 2350.27C2739.06 2352.8 2731.23 2359.56 2725.2 2370.53C2719.05 2381.09 2715.4 2394.34 2714.25 2410.28C2713.09 2426.22 2714.83 2442.96 2719.46 2460.5C2732.25 2508.95 2759.73 2527.6 2801.91 2516.47C2819.04 2511.95 2835.92 2501.46 2852.58 2485C2869.54 2468.02 2884.59 2445.5 2897.74 2417.46C2901.2 2410.29 2906.07 2405.88 2912.34 2404.23C2917.76 2402.79 2922.6 2404.2 2926.85 2408.44C2931.51 2412.57 2935 2419.02 2937.32 2427.79C2941.51 2443.66 2940.96 2457.65 2935.67 2469.77C2922.43 2499.17 2903.8 2524.19 2879.76 2544.83C2856.03 2564.95 2831.43 2578.36 2805.96 2585.09Z" fill="#E41F26"/>
<path d="M3184.83 2276.01C3190.26 2274.58 3195.15 2276.19 3199.51 2280.85C3203.87 2285.5 3207.15 2292.01 3209.35 2300.36C3214.64 2320.41 3211.73 2333.91 3200.61 2340.86C3177.87 2356.25 3151.63 2368.54 3121.89 2377.73C3123.21 2414.9 3114.99 2447.23 3097.23 2474.7C3079.35 2501.75 3055.59 2519.19 3025.94 2527.02C3000.88 2533.64 2977.78 2533.26 2956.62 2525.89C2935.88 2518.4 2918.28 2505.85 2903.8 2488.23C2889.32 2470.61 2878.99 2450.11 2872.82 2426.72C2864.44 2394.98 2863.05 2365.19 2868.66 2337.36C2874.16 2309.1 2885.74 2285.27 2903.4 2265.87C2920.95 2246.05 2942.67 2232.72 2968.56 2225.88C3000.3 2217.51 3028.7 2221.85 3053.75 2238.91C3079.11 2255.45 3097.71 2279.35 3109.54 2310.63C3128.84 2304.19 3151.12 2293.84 3176.39 2279.58C3179.51 2277.86 3182.33 2276.67 3184.83 2276.01ZM3013.42 2459.3C3026.79 2455.77 3036.84 2447.31 3043.58 2433.91C3050.73 2420.41 3053.28 2402.98 3051.22 2381.64C3035.96 2376.29 3022.91 2367.45 3012.06 2355.12C3001.63 2342.69 2994.32 2328.53 2990.13 2312.66C2988.37 2305.98 2987.23 2299.13 2986.72 2292.12L2983.58 2292.95C2966.88 2297.36 2955.04 2309.19 2948.06 2328.46C2941.39 2347.19 2941.92 2371.18 2949.63 2400.41C2955.7 2423.38 2964.71 2439.77 2976.68 2449.56C2989.06 2459.25 3001.31 2462.49 3013.42 2459.3Z" fill="#E41F26"/>
<path d="M3244.05 2469.45C3228.18 2473.64 3214.7 2468.26 3203.61 2453.32C3192.93 2438.27 3182.74 2412.37 3173.04 2375.61C3158.71 2321.32 3152.82 2267.71 3155.38 2214.77C3155.94 2201.66 3159.68 2191.29 3166.6 2183.66C3173.83 2175.5 3185.17 2169.38 3200.62 2165.3C3208.97 2163.09 3215.09 2162.59 3218.99 2163.8C3222.88 2165.01 3225.6 2168.53 3227.14 2174.38C3228.9 2181.06 3229.74 2196.92 3229.65 2221.96C3229.88 2239.77 3230.4 2255.27 3231.2 2268.46C3232 2281.65 3233.99 2297.65 3237.17 2316.47C3241.47 2276.92 3249.21 2243.6 3260.38 2216.53C3271.55 2189.46 3284.01 2168.97 3297.76 2155.07C3311.93 2141.05 3325.91 2132.23 3339.69 2128.59C3366.83 2121.42 3383.99 2131.41 3391.16 2158.56C3395.45 2174.85 3398.63 2205.5 3400.69 2250.52C3402.35 2288.95 3404.72 2314.01 3407.8 2325.71C3412.21 2342.41 3420.47 2349.17 3432.58 2345.97C3440.94 2343.76 3449.43 2336.16 3458.06 2323.16C3467 2309.64 3478.04 2288.85 3491.19 2260.81C3494.65 2253.64 3499.52 2249.23 3505.79 2247.58C3511.21 2246.14 3516.05 2247.55 3520.3 2251.79C3524.96 2255.92 3528.45 2262.37 3530.77 2271.14C3535.18 2287.84 3534.63 2301.83 3529.12 2313.12C3517 2339.99 3502.38 2363.28 3485.24 2383C3468.53 2402.6 3447.02 2415.87 3420.71 2422.82C3399.41 2428.44 3381.73 2426.63 3367.67 2417.38C3353.51 2407.72 3343.34 2391.19 3337.17 2367.81C3334.08 2356.11 3331.49 2334.46 3329.4 2302.85C3327.88 2275.1 3325.8 2256.22 3323.16 2246.2C3321.39 2239.52 3318.21 2236.78 3313.62 2237.99C3308.19 2239.43 3302.34 2248.57 3296.06 2265.41C3290.1 2281.73 3284.92 2302.75 3280.55 2328.47C3276.59 2354.09 3274.84 2380.46 3275.3 2407.59C3275.88 2428.43 3273.98 2443.23 3269.59 2451.98C3265.51 2460.21 3257 2466.03 3244.05 2469.45Z" fill="#E41F26"/>
<path d="M3707.05 2156.25C3718.74 2153.17 3726.9 2160.39 3731.53 2177.93C3740.24 2210.93 3718.71 2234.26 3666.92 2247.93C3656.9 2250.57 3641.99 2252.5 3622.21 2253.7C3634.47 2278.16 3646.46 2305.82 3658.18 2336.68C3670.21 2367.01 3678.92 2392.4 3684.32 2412.87C3696.23 2457.97 3698.02 2494.35 3689.68 2522.02C3681.35 2549.68 3665.28 2566.65 3641.48 2572.94C3611.41 2580.87 3584.28 2565.25 3560.09 2526.07C3536.31 2486.78 3513.07 2424.12 3490.36 2338.09C3469.2 2257.9 3456.32 2174.42 3451.72 2087.62C3447.43 2000.3 3453.21 1925.74 3469.06 1863.93C3485.22 1801.59 3511.46 1765.62 3547.8 1756.03C3567.43 1750.85 3584.98 1755.6 3600.47 1770.27C3616.38 1784.83 3628.24 1806.94 3636.07 1836.59C3661.98 1934.74 3631.52 2057.14 3544.71 2203.8C3551.33 2245.83 3558.73 2282.29 3566.88 2313.2C3578.24 2356.22 3591.33 2399.89 3606.16 2444.22C3621.1 2488.97 3631.91 2510.46 3638.59 2508.7C3651.12 2505.39 3651.65 2482.02 3640.19 2438.59C3631.59 2406.01 3620.97 2375.09 3608.33 2345.82C3596.1 2316.43 3581.77 2285.82 3565.32 2253.97C3563.47 2248.65 3563.32 2241.32 3564.88 2231.98C3566.85 2222.52 3569.93 2213.89 3574.12 2206.08C3578.32 2198.28 3582.71 2193.77 3587.3 2192.55C3595.66 2190.35 3605.79 2188.12 3617.7 2185.87C3621.57 2185.29 3626.01 2184.35 3631.02 2183.02C3647.73 2178.61 3665.93 2172.25 3685.62 2163.92C3688.85 2162.62 3692.29 2161.27 3695.94 2159.86C3699.59 2158.45 3703.29 2157.25 3707.05 2156.25ZM3551.01 1821.52C3543.49 1823.51 3537.46 1838.72 3532.91 1867.18C3528.78 1895.52 3526.85 1932.21 3527.12 1977.26C3527.29 2021.89 3529.58 2068.64 3533.99 2117.5C3557.37 2070.68 3572.63 2024.44 3579.79 1978.77C3586.83 1932.68 3585.82 1891.63 3576.76 1855.6C3570.04 1830.13 3561.45 1818.77 3551.01 1821.52Z" fill="#E41F26"/>
<defs>
<linearGradient id="paint0_linear_112_2" x1="1986.1" y1="410" x2="1986.1" y2="1656.52" gradientUnits="userSpaceOnUse">
<stop stop-color="#E41F26"/>
<stop offset="1" stop-color="#B70000"/>
</linearGradient>
</defs>
</svg>
