<svg width="32" height="37" viewBox="0 0 32 37" fill="none" xmlns="http://www.w3.org/2000/svg">
<path d="M28.2514 0H3.74875C1.68237 0 0 1.70197 0 3.81102V28.823C0 30.9321 1.68225 32.634 3.74863 32.634H24.4846L23.5154 29.2115L25.856 31.413L28.0685 33.485L32 37V3.81102C32 1.70197 30.3178 0 28.2514 0ZM21.1931 24.1611C21.1931 24.1611 20.5349 23.3656 19.9862 22.6625C22.3818 21.978 23.296 20.461 23.296 20.461C22.5462 20.9606 21.8331 21.3121 21.1931 21.5524C20.2789 21.941 19.4011 22.1999 18.5417 22.348C16.7862 22.681 15.1771 22.5886 13.8057 22.3295C12.7634 22.1259 11.8674 21.83 11.1178 21.5341C10.6971 21.3675 10.24 21.164 9.78275 20.905C9.728 20.868 9.67313 20.8495 9.61825 20.8125C9.58175 20.794 9.56338 20.7755 9.54513 20.7571C9.216 20.5721 9.03312 20.4426 9.03312 20.4426C9.03312 20.4426 9.91088 21.9226 12.2331 22.6255C11.6846 23.3286 11.008 24.161 11.008 24.161C6.96675 24.0315 5.43087 21.3491 5.43087 21.3491C5.43087 15.3921 8.064 10.5635 8.064 10.5635C10.6971 8.56548 13.2022 8.62099 13.2022 8.62099L13.3851 8.84307C10.0938 9.80483 8.576 11.2665 8.576 11.2665C8.576 11.2665 8.97825 11.0446 9.65475 10.7301C11.6114 9.86048 13.1657 9.62007 13.8057 9.56455C13.9154 9.54596 14.0069 9.5275 14.1166 9.5275C15.342 9.36599 16.5821 9.3536 17.8104 9.49057C19.5474 9.69405 21.4126 10.2121 23.3143 11.2665C23.3143 11.2665 21.8698 9.87907 18.7611 8.91705L19.0171 8.62112C19.0171 8.62112 21.5222 8.56548 24.1554 10.5636C24.1554 10.5636 26.7886 15.3921 26.7886 21.3491C26.7886 21.3491 25.2342 24.0315 21.1931 24.161V24.1611ZM12.6903 15.5216C11.648 15.5216 10.8252 16.4465 10.8252 17.575C10.8252 18.7035 11.6663 19.6285 12.6903 19.6285C13.7326 19.6285 14.5554 18.7035 14.5554 17.575C14.5738 16.4465 13.7326 15.5216 12.6904 15.5216H12.6903ZM19.3646 15.5216C18.3223 15.5216 17.4994 16.4465 17.4994 17.575C17.4994 18.7035 18.3406 19.6285 19.3646 19.6285C20.4069 19.6285 21.2296 18.7035 21.2296 17.575C21.2296 16.4465 20.4069 15.5216 19.3646 15.5216Z" fill="#7289DA"/>
</svg>
