<svg width="92" height="21" viewBox="0 0 92 21" fill="none" preserveAspectRatio="xMidYMid meet"  xmlns="http://www.w3.org/2000/svg">
<path d="M7.7 21C12.152 21 15.12 17.864 15.12 13.888C15.12 11.452 14.196 9.688 11.116 8.26L6.328 5.992C4.844 5.264 4.368 4.396 4.368 3.472C4.368 2.548 5.096 1.512 7.14 1.512C9.576 1.512 12.068 3.164 13.188 6.608L13.328 6.608L15.344 2.016C13.692 1.092 10.78 0.28 8.26 0.28C2.66 0.28 0.728 3.612 0.727999 6.664C0.727999 9.128 2.156 11.424 4.9 12.712L9.548 14.84C11.172 15.568 11.536 16.408 11.536 17.304C11.536 18.788 10.36 19.712 8.764 19.712C5.936 19.712 2.884 17.696 1.904 13.776L1.764 13.776L-1.52916e-06 19.124C2.016 20.272 4.564 21 7.7 21Z" fill="#EF5350"/>
<path d="M22.9915 20.86C26.1835 20.86 28.5635 18.48 28.7875 15.008L28.6195 14.952C27.9195 16.184 26.7995 16.66 25.2315 16.66C21.8715 16.66 20.4155 13.636 20.4155 11.256C20.4155 9.016 21.3675 7.28 23.6355 7.28C25.2595 7.28 26.6035 8.54 26.7715 11.564L26.9115 11.592L29.0395 6.524C27.7235 5.796 25.9315 5.32 23.9435 5.32C19.5195 5.32 16.4675 8.736 16.4675 13.356C16.4675 17.836 19.1275 20.86 22.9915 20.86Z" fill="#EF5350"/>
<path d="M44.9293 16.912C44.6773 17.836 44.0333 18.06 43.5853 18.06C43.0253 18.06 42.5213 17.64 42.5213 16.66L42.5213 11.732C42.5213 7.98 40.8413 5.32 36.7253 5.32C33.1413 5.32 30.9013 7.42 30.4253 10.836L30.6213 10.892C31.3493 8.764 32.5253 8.092 34.2613 8.092C36.5853 8.092 37.2013 9.632 37.2013 11.396L37.2013 11.872L35.3533 12.264C32.0213 12.964 29.8933 14.7 29.8933 17.248C29.8933 19.124 31.2373 20.86 33.5613 20.86C35.5493 20.86 36.8373 19.768 37.2853 18.312L37.3693 18.34C37.6493 19.88 38.7973 20.86 40.7573 20.86C42.9413 20.86 44.7333 19.6 45.2093 16.94L44.9293 16.912ZM36.4173 18.06C35.3813 18.06 34.6813 17.192 34.6813 15.764C34.6813 14.28 35.2133 13.104 36.8093 12.796L37.2013 12.712L37.2013 17.752C37.0333 17.976 36.7813 18.06 36.4173 18.06Z" fill="#EF5350"/>
<path d="M56.84 5.32C54.432 5.32 52.612 7.168 52.416 12.208L52.248 12.208L52.248 5.32L45.78 7.252L45.78 7.392C46.732 7.7 47.152 8.456 47.152 9.968L47.152 18.2C47.152 19.348 46.564 19.964 45.78 20.3L45.78 20.44L54.404 20.44L54.404 20.3C53.368 20.076 52.472 19.572 52.472 18.2L52.472 14.504C52.472 10.892 53.676 10.052 55.468 10.052C56.336 10.052 56.756 10.164 57.12 10.388L57.26 10.388L57.26 5.32L56.84 5.32Z" fill="#EF5350"/>
<path d="M64.8007 18.2L64.8008 8.77703e-07L58.1088 2.044L58.1088 2.184C59.0888 2.52 59.4808 3.22 59.4808 4.284L59.4807 18.2C59.4807 19.348 58.8928 19.964 58.1088 20.3L58.1088 20.44L66.1728 20.44L66.1728 20.3C65.3888 19.964 64.8007 19.348 64.8007 18.2Z" fill="#EF5350"/>
<path d="M76.3123 16.688C73.8203 16.688 72.1403 15.064 71.7203 11.9L79.7843 11.9C79.7843 6.58 76.3963 5.32 74.0163 5.32C70.2082 5.32 67.4362 8.68 67.4362 13.384C67.4362 18.284 70.6002 20.86 73.8202 20.86C76.0602 20.86 78.9722 19.572 79.7282 15.26L79.5042 15.204C78.7482 16.268 77.7123 16.688 76.3123 16.688ZM73.4003 6.244C74.5203 6.244 75.1083 7.336 75.1083 11.032L71.6363 11.032C71.6083 10.78 71.6083 10.528 71.6083 10.248C71.6083 7.728 72.2523 6.244 73.4003 6.244Z" fill="#EF5350"/>
<path d="M91.2109 16.632C90.9589 17.332 90.3429 18.06 89.2509 18.06C88.2709 18.06 87.7389 17.276 87.7389 16.072L87.7389 6.496L90.3149 6.496L90.3149 5.796L87.7389 5.796L87.7389 0.896001L87.7109 0.896001C85.4989 2.828 83.2029 4.536 81.0469 6.384L81.0469 6.524L82.4189 6.524L82.4189 16.828C82.4189 19.152 83.5949 20.86 86.2549 20.86C89.1669 20.86 90.8469 18.788 91.4629 16.716L91.2109 16.632Z" fill="#EF5350"/>
</svg>
