<svg width="277" height="276" viewBox="0 0 277 276" fill="none" xmlns="http://www.w3.org/2000/svg">
<path fill-rule="evenodd" clip-rule="evenodd" d="M58.2026 174.376C58.2056 178.184 57.4576 181.956 56.0012 185.475C54.5449 188.993 52.4089 192.19 49.7155 194.883C47.0221 197.575 43.8242 199.71 40.3048 201.165C36.7853 202.62 33.0135 203.366 29.2052 203.362C25.3989 203.363 21.6296 202.614 18.1128 201.158C14.5961 199.702 11.4008 197.567 8.70988 194.875C6.01891 192.183 3.88498 188.987 2.4301 185.469C0.975225 181.952 0.227935 178.182 0.230966 174.376C0.227934 170.569 0.975604 166.798 2.4312 163.28C3.8868 159.762 6.02176 156.565 8.71395 153.873C11.4061 151.181 14.6027 149.046 18.1208 147.59C21.6389 146.135 25.4094 145.387 29.2168 145.39H58.2141V174.376H58.2026ZM72.6955 174.376C72.6925 170.569 73.4401 166.798 74.8957 163.28C76.3513 159.762 78.4863 156.565 81.1785 153.873C83.8707 151.181 87.0672 149.046 90.5853 147.59C94.1034 146.135 97.874 145.387 101.681 145.39C105.489 145.387 109.259 146.135 112.777 147.59C116.295 149.046 119.492 151.181 122.184 153.873C124.876 156.565 127.011 159.762 128.467 163.28C129.922 166.798 130.67 170.569 130.667 174.376V246.852C130.67 250.659 129.922 254.43 128.467 257.948C127.011 261.466 124.876 264.663 122.184 267.355C119.492 270.047 116.295 272.182 112.777 273.638C109.259 275.093 105.489 275.841 101.681 275.838C97.874 275.841 94.1034 275.093 90.5853 273.638C87.0672 272.182 83.8707 270.047 81.1785 267.355C78.4863 264.663 76.3513 261.466 74.8957 257.948C73.4401 254.43 72.6925 250.659 72.6955 246.852V174.376Z" fill="#E01E5A"/>
<path fill-rule="evenodd" clip-rule="evenodd" d="M101.681 57.9832C97.8727 57.9862 94.1011 57.2381 90.5823 55.7818C87.0635 54.3255 83.8664 52.1895 81.174 49.4961C78.4817 46.8027 76.347 43.6048 74.8921 40.0853C73.4371 36.5659 72.6906 32.7941 72.6951 28.9858C72.6921 25.1785 73.4398 21.4079 74.8954 17.8898C76.351 14.3718 78.4859 11.1752 81.1781 8.48299C83.8703 5.79081 87.0669 3.65585 90.585 2.20025C94.1031 0.744647 97.8736 -0.00302333 101.681 9.1879e-06C105.488 -0.00302333 109.259 0.744647 112.777 2.20025C116.295 3.65585 119.492 5.79081 122.184 8.48299C124.876 11.1752 127.011 14.3718 128.467 17.8898C129.922 21.4079 130.67 25.1785 130.667 28.9858V57.9947H101.692L101.681 57.9832ZM101.681 72.6951C105.488 72.6921 109.259 73.4398 112.777 74.8954C116.295 76.351 119.492 78.4859 122.184 81.1781C124.876 83.8703 127.011 87.0669 128.467 90.585C129.922 94.1031 130.67 97.8736 130.667 101.681C130.67 105.488 129.922 109.259 128.467 112.777C127.011 116.295 124.876 119.492 122.184 122.184C119.492 124.876 116.295 127.011 112.777 128.467C109.259 129.922 105.488 130.67 101.681 130.667H28.9858C25.1795 130.67 21.4098 129.922 17.8925 128.468C14.3752 127.013 11.1791 124.879 8.48707 122.188C5.79504 119.497 3.65984 116.302 2.20356 112.785C0.747282 109.268 -0.00150729 105.499 9.1879e-06 101.692C-0.00302333 97.8851 0.744647 94.1146 2.20025 90.5965C3.65585 87.0784 5.79081 83.8818 8.48299 81.1896C11.1752 78.4975 14.3718 76.3625 17.8898 74.9069C21.4079 73.4513 25.1785 72.7036 28.9858 72.7067H101.692L101.681 72.6951Z" fill="#36C5F0"/>
<path fill-rule="evenodd" clip-rule="evenodd" d="M217.854 101.681C217.85 97.8727 218.599 94.1011 220.055 90.5823C221.511 87.0635 223.647 83.8664 226.341 81.174C229.034 78.4817 232.232 76.347 235.751 74.8921C239.271 73.4371 243.043 72.6906 246.851 72.6951C250.658 72.6921 254.429 73.4398 257.947 74.8954C261.465 76.351 264.661 78.4859 267.354 81.1781C270.046 83.8703 272.181 87.0669 273.636 90.585C275.092 94.1031 275.84 97.8736 275.837 101.681C275.84 105.488 275.092 109.259 273.636 112.777C272.181 116.295 270.046 119.492 267.354 122.184C264.661 124.876 261.465 127.011 257.947 128.467C254.429 129.922 250.658 130.67 246.851 130.667H217.854V101.692V101.681ZM203.361 101.681C203.364 105.488 202.616 109.259 201.16 112.777C199.705 116.295 197.57 119.492 194.878 122.184C192.185 124.876 188.989 127.011 185.471 128.467C181.953 129.922 178.182 130.67 174.375 130.667C170.566 130.671 166.795 129.925 163.275 128.47C159.756 127.015 156.558 124.88 153.865 122.188C151.171 119.496 149.035 116.298 147.579 112.78C146.122 109.261 145.374 105.489 145.377 101.681V28.9858C145.374 25.1775 146.122 21.406 147.579 17.8872C149.035 14.3683 151.171 11.1713 153.865 8.47892C156.558 5.78658 159.756 3.65186 163.275 2.19694C166.795 0.742022 170.566 -0.00452867 174.375 2.06673e-05C178.182 -0.00301185 181.953 0.744658 185.471 2.20026C188.989 3.65586 192.185 5.79082 194.878 8.483C197.57 11.1752 199.705 14.3718 201.16 17.8899C202.616 21.4079 203.364 25.1785 203.361 28.9858V101.692V101.681Z" fill="#2EB67D"/>
<path fill-rule="evenodd" clip-rule="evenodd" d="M174.375 217.855C178.182 217.852 181.952 218.599 185.47 220.055C188.989 221.51 192.185 223.645 194.877 226.338C197.57 229.03 199.704 232.226 201.16 235.744C202.616 239.263 203.363 243.033 203.36 246.84C203.365 250.649 202.618 254.421 201.163 257.94C199.708 261.459 197.574 264.657 194.881 267.351C192.189 270.044 188.992 272.18 185.473 273.636C181.954 275.093 178.183 275.841 174.375 275.838C170.566 275.841 166.795 275.093 163.276 273.636C159.757 272.18 156.56 270.044 153.868 267.351C151.175 264.657 149.041 261.459 147.586 257.94C146.131 254.421 145.384 250.649 145.389 246.84V217.855H174.375V217.855ZM174.375 203.362C170.567 203.365 166.797 202.617 163.279 201.161C159.76 199.706 156.564 197.571 153.872 194.879C151.179 192.187 149.045 188.99 147.589 185.472C146.133 181.954 145.386 178.183 145.389 174.376C145.386 170.569 146.133 166.798 147.589 163.28C149.045 159.762 151.179 156.565 153.872 153.873C156.564 151.181 159.76 149.046 163.279 147.59C166.797 146.135 170.567 145.387 174.375 145.39H247.07C250.877 145.387 254.647 146.135 258.166 147.59C261.684 149.046 264.88 151.181 267.572 153.873C270.265 156.565 272.4 159.762 273.855 163.28C275.311 166.798 276.058 170.569 276.055 174.376C276.058 178.183 275.311 181.954 273.855 185.472C272.4 188.99 270.265 192.187 267.572 194.879C264.88 197.571 261.684 199.706 258.166 201.161C254.647 202.617 250.877 203.365 247.07 203.362H174.375V203.362Z" fill="#ECB22E"/>
</svg>
