<svg width="36" height="28" viewBox="0 0 36 28" fill="none" xmlns="http://www.w3.org/2000/svg">
<path d="M36 3.31457C34.6753 3.87674 33.2519 4.25667 31.7579 4.4276C33.283 3.55279 34.454 2.1675 35.0054 0.516943C33.5556 1.34032 31.9694 1.92044 30.3154 2.23224C28.968 0.858522 27.0487 0 24.9242 0C20.8453 0 17.5382 3.16492 17.5382 7.06844C17.5382 7.62253 17.6036 8.16195 17.7294 8.67943C11.5912 8.38455 6.14897 5.5705 2.50608 1.29391C1.87045 2.33789 1.50623 3.55225 1.50623 4.84751C1.50623 7.29992 2.81025 9.46339 4.79194 10.7311C3.61905 10.6959 2.47197 10.3927 1.44647 9.84682C1.44605 9.87643 1.44605 9.90604 1.44605 9.93579C1.44605 13.3606 3.99192 16.2176 7.37058 16.8669C6.28297 17.15 5.14213 17.1915 4.03523 16.9881C4.97503 19.7963 7.70273 21.8399 10.9346 21.8971C8.40684 23.7929 5.22211 24.923 1.76189 24.923C1.16564 24.923 0.577828 24.8895 0 24.8242C3.26855 26.8298 7.15078 28 11.3217 28C24.9071 28 32.3359 17.229 32.3359 7.8882C32.3359 7.58161 32.3288 7.27678 32.3145 6.97369C33.7605 5.97329 35.0085 4.7342 36 3.31457Z" fill="#55ACEE"/>
</svg>
