<svg width="37" height="26" viewBox="0 0 37 26" fill="none" xmlns="http://www.w3.org/2000/svg">
<path d="M35.3278 4.67445C35.1207 3.90915 34.7168 3.21144 34.1562 2.65082C33.5956 2.09019 32.8979 1.6862 32.1326 1.47908C29.3308 0.714966 18.0547 0.714966 18.0547 0.714966C18.0547 0.714966 6.77805 0.738095 3.9763 1.50221C3.21098 1.70934 2.51329 2.11335 1.95268 2.67401C1.39208 3.23466 0.988133 3.93239 0.781066 4.69772C-0.066398 9.67589 -0.395145 17.2615 0.804336 22.0405C1.01142 22.8058 1.41538 23.5035 1.97598 24.0641C2.53659 24.6247 3.23427 25.0287 3.99957 25.2359C6.80132 26 18.0777 26 18.0777 26C18.0777 26 29.354 26 32.1556 25.2359C32.9209 25.0288 33.6186 24.6248 34.1792 24.0641C34.7399 23.5035 35.1438 22.8058 35.3509 22.0405C36.2448 17.0553 36.5202 9.47449 35.3278 4.67459V4.67445Z" fill="#FF0000"/>
<path d="M14.4655 18.7756L23.82 13.3574L14.4656 7.93921L14.4655 18.7756Z" fill="white"/>
</svg>
